<svg width="600" height="120" viewBox="0 0 600 120" fill="none" xmlns="http://www.w3.org/2000/svg">
  <!-- Icon section based on the provided image -->
  <g transform="translate(20, 20)">
    <!-- Main device shape -->
    <path d="M10 15 L50 8 L55 12 L58 45 L52 55 L45 58 L15 52 L8 45 L10 15 Z" fill="#00e0ff" stroke="#001f3f" stroke-width="2"/>
    
    <!-- Lightning bolt -->
    <path d="M25 20 L35 20 L30 35 L40 35 L25 50 L30 40 L20 40 Z" fill="#ffffff"/>
    
    <!-- Tech details -->
    <rect x="45" y="25" width="8" height="2" fill="#00e0ff"/>
    <rect x="45" y="30" width="6" height="2" fill="#00e0ff"/>
    <rect x="45" y="35" width="4" height="2" fill="#00e0ff"/>
    
    <!-- Floating elements -->
    <circle cx="15" cy="12" r="2" fill="#00e0ff"/>
    <circle cx="58" cy="18" r="1.5" fill="#00e0ff"/>
    <circle cx="12" cy="58" r="1.5" fill="#00e0ff"/>
    <circle cx="55" cy="62" r="2" fill="#00e0ff"/>
    
    <!-- Small squares -->
    <rect x="8" y="25" width="3" height="3" fill="#00e0ff"/>
    <rect x="52" y="48" width="3" height="3" fill="#00e0ff"/>
  </g>
  
  <!-- BLIXCORE Text exactly as shown -->
  <text x="120" y="75" font-family="Arial, sans-serif" font-size="72" font-weight="900" fill="#00e0ff">BLIX</text>
  <text x="320" y="75" font-family="Arial, sans-serif" font-size="72" font-weight="900" fill="#001f3f">CORE</text>
</svg>